<svg width="149" height="128" viewBox="0 0 149 128" fill="none" xmlns="http://www.w3.org/2000/svg">
<g clip-path="url(#clip0_4411_3625)">
<path d="M94.2832 128C94.3022 117.201 94.3365 106.402 94.3403 95.6063C94.3403 88.5958 94.3061 81.5853 94.287 74.5785C94.4089 74.3237 94.5917 74.2704 94.8354 74.415C95.2163 74.7725 95.6809 74.8981 96.1913 75.0122C102.845 76.5337 106.642 81.2353 106.657 88.0556C106.684 100.464 106.668 112.876 106.657 125.284C106.657 126.224 106.779 127.201 106.086 128.004H94.2832V128Z" fill="#4B5064"/>
<path d="M106.082 128C106.082 114.534 106.086 101.065 106.082 87.5991C106.082 81.395 101.874 76.488 95.7306 75.5522C95.0641 75.4495 94.63 75.3354 94.6757 74.5785C95.106 73.7492 95.921 73.8063 96.6446 73.7911C100.278 73.7302 103.915 73.734 107.548 73.7911C108.276 73.8025 109.087 73.7568 109.533 74.567C109.525 92.3767 109.517 110.19 109.51 128H106.082Z" fill="#363744"/>
<path d="M148.764 35.6118C148.806 37.5061 148.874 39.4004 148.882 41.2947C148.916 51.6108 148.939 61.9269 148.943 72.243C148.943 72.9163 149.164 73.6314 148.745 74.2742C147.66 72.7527 148.307 71.0219 148.151 69.3863C148.09 68.1805 147.374 67.7658 146.262 67.7734C145.565 67.7772 144.872 67.762 144.175 67.762C128.358 67.762 112.538 67.762 96.7209 67.762C96.0239 67.762 95.327 67.7544 94.6338 67.762C92.501 67.781 90.1931 66.9556 88.4831 69.0249C87.8699 68.2679 87.9651 67.3588 87.9651 66.4877C87.9499 56.5863 87.9537 46.681 87.9651 36.7796C87.9651 35.9617 87.9309 35.1325 88.2889 34.3641C88.3574 34.2576 88.4831 34.0788 88.5136 34.0978C91.4804 35.7753 94.71 34.7939 97.8139 35.0146C98.309 35.0488 98.8117 34.9499 99.3107 35.0146C99.9505 35.1515 100.156 35.7145 100.43 36.1976C101.017 37.2246 101.946 37.4376 103.013 37.3235C104.022 37.2132 104.528 36.5818 104.806 35.646C104.962 35.1211 104.852 34.2652 105.865 34.4402C106.981 35.0374 108.188 34.9917 109.392 34.9917C121.423 34.9917 133.454 34.9879 145.485 34.9994C146.608 34.9994 147.785 34.8054 148.768 35.6118H148.764Z" fill="#EE3737"/>
<path d="M1.02822 37.5061C1.70994 36.3649 2.97437 36.1443 4.05217 35.7106C13.9581 31.7128 23.883 27.753 33.8118 23.8046C35.1219 23.2834 36.4511 22.4884 37.9136 23.428C35.9788 25.1816 35.4952 27.7149 34.4288 29.9364C33.0768 32.7132 32.0942 35.646 30.8602 38.4722C30.6736 38.9021 29.7596 39.777 31.1916 39.971C36.1883 39.9672 41.1736 39.9025 46.159 39.9938C46.6312 39.9101 47.1035 40.0014 47.5795 39.9938C52.9229 39.9063 58.27 39.9634 63.6133 39.9634C64.3065 39.9634 64.9996 39.99 65.6356 40.3057C66.6639 40.9942 66.0203 41.5344 65.4643 42.0707C63.3886 44.0639 61.3853 46.1256 59.3402 48.1493C58.7613 48.7199 58.1786 49.2866 57.7216 49.9675C55.4631 52.5998 52.9571 54.9962 50.4321 57.3622C48.1546 59.4962 45.5191 59.3745 43.1502 57.2215C41.147 55.3994 39.4103 53.3035 37.3042 51.5918C35.0115 48.5753 32.2694 45.9697 29.5729 43.3336C28.895 42.6717 28.3314 41.367 27.185 41.8425C26.0501 42.3141 25.9206 43.6265 25.8406 44.7867C25.7835 45.6121 25.7454 46.4489 24.8694 46.9054C23.3041 47.4075 21.8912 46.8598 20.4897 46.2588C16.5517 44.5698 12.6937 42.6983 8.66046 41.2415C6.70289 40.1878 4.61964 39.4118 2.60113 38.4875C2.03367 38.2288 1.3748 38.1147 1.02441 37.5061H1.02822Z" fill="#FEC84B"/>
<path d="M148.615 69.4699C148.657 71.0713 148.699 72.6766 148.745 74.278C147.979 74.7268 147.138 74.5062 146.334 74.51C134.067 74.5443 121.8 74.5519 109.533 74.5709C104.578 74.3883 99.6266 74.4149 94.6718 74.5823C94.5423 74.5823 94.4128 74.5823 94.2833 74.5785C89.0885 74.5595 83.8937 74.5252 78.6989 74.5252C57.4703 74.5176 36.2456 74.5176 15.017 74.5214C13.8173 74.5214 12.5757 74.4644 12.4081 72.9657C12.2482 71.5088 11.8521 69.7932 14.0534 69.3406C14.8075 69.1884 15.573 69.2873 16.3309 69.2645C32.4218 68.7281 48.5165 68.8537 64.6113 68.7966C64.9274 68.7966 65.2435 68.7662 65.5596 68.751C72.373 68.9488 79.1902 68.8803 86.0036 68.7624C86.731 68.8042 87.4623 68.827 88.1707 69.0439C107.167 68.5494 126.164 68.9526 145.161 68.8423C146.33 68.8347 147.595 68.5418 148.612 69.4699H148.615Z" fill="#CB1513"/>
<path d="M137.315 15.0632C142.293 17.6346 145.774 21.4956 147.534 26.8476C146.879 27.5095 146.029 27.4182 145.214 27.4182C131.877 27.4258 118.539 27.422 105.202 27.4182C104.448 27.4182 103.675 27.4752 103.008 26.9921C102.643 26.6003 102.502 26.1097 102.494 25.5999C102.456 22.69 102.433 19.78 102.509 16.8701C102.521 16.4897 102.666 16.1283 102.887 15.8088C103.812 15.048 104.928 15.2344 105.983 15.2344C115.611 15.2192 125.239 15.2268 134.863 15.223C135.682 15.223 136.512 15.3485 137.312 15.067L137.315 15.0632Z" fill="#F24345"/>
<path d="M24.9916 46.5934C25.8066 45.3191 25.0754 43.7443 25.9247 42.413C27.0101 40.7127 27.4519 40.5453 28.88 41.9603C30.9443 44.003 32.9551 46.1027 35.0689 48.096C36.04 49.0127 36.1733 50.5418 37.4758 51.1657C38.9573 52.9345 40.7131 54.4408 42.2784 56.1259C42.7125 56.5938 43.478 56.8867 43.3333 57.7464C38.6869 61.5616 33.7016 64.9281 28.9257 68.576C28.5106 68.8917 28.046 69.1047 27.5318 68.7433C25.8789 68.1043 25.3648 66.7577 25.3458 65.1411C25.3191 62.9348 25.3305 60.7286 25.3267 58.5224C24.7364 57.6893 24.8202 56.7307 24.8088 55.7874C24.7821 53.3301 24.8583 50.8766 24.7288 48.4231C24.7021 47.7993 24.8468 47.1944 24.9916 46.5934Z" fill="#FEA83C"/>
<path d="M1.02838 37.5061C3.65624 38.4381 6.3222 39.2749 8.63015 40.9144C13.0556 42.7364 17.4049 44.7334 21.7885 46.6544C22.0894 46.7837 22.3636 46.9054 22.436 47.263C19.035 51.7173 16.3576 56.6395 13.3832 61.3677C12.9147 62.1095 12.5453 62.9311 11.6769 63.3229C9.94408 63.3952 8.80153 62.5431 8.16932 60.995C5.53764 54.5208 2.90978 48.0428 0.319997 41.5534C-0.255086 40.1079 -0.0760867 38.7043 1.02838 37.5099V37.5061Z" fill="#FEA83C"/>
<path d="M27.5277 68.7434C30.2622 67.4386 32.3721 65.24 34.8591 63.5815C37.7078 61.6796 40.2176 59.2908 43.2568 57.6589C43.3711 57.5828 43.5158 57.5258 43.5958 57.598C45.938 59.6483 48.2231 59.2185 50.4815 57.4535C50.8738 57.347 51.2509 57.4193 51.5593 57.6475C56.4647 61.2535 61.511 64.677 66.1649 68.6216C66.2259 68.9488 66.1269 69.158 65.7574 69.1656C65.0681 69.2379 64.3788 69.3672 63.6856 69.371C47.5795 69.409 31.4733 69.4319 15.371 69.4509C14.933 69.4509 14.4912 69.3824 14.0532 69.3482C17.7551 68.8765 21.4722 69.2835 25.1779 69.1199C25.9662 69.0857 26.8269 69.4014 27.5277 68.7548V68.7434Z" fill="#FCBF59"/>
<path d="M87.7858 69.413C87.264 69.3559 86.689 69.5461 86.2624 69.0745C85.5083 68.2072 85.7635 67.1459 85.7597 66.1645C85.7406 55.5251 85.7559 44.8819 85.7445 34.2425C85.7368 26.8097 81.0752 19.9476 74.0752 17.0262C67.1666 14.1429 59.2449 15.7481 53.8444 21.0431C49.9103 24.9002 48.1736 29.6132 47.9794 35.0299C47.9146 36.8329 48.4364 38.7006 47.5414 40.439C47.1415 40.4656 46.7416 40.496 46.3379 40.5227C45.1611 39.5108 44.4336 38.3545 45.1344 36.7454C44.6926 29.6018 46.7073 23.3368 52.0011 18.3652C56.0267 14.5879 60.8292 12.4616 66.4125 12.4425C78.1998 12.3969 89.9909 12.4197 101.778 12.4121C101.976 12.5985 101.972 12.7811 101.767 12.9599C101.584 13.0892 101.386 13.1767 101.169 13.2337C92.4931 13.4772 83.8135 13.3174 75.1378 13.306C74.5513 13.306 73.9343 13.2261 73.5344 13.0626C75.2749 13.2794 76.8706 14.2836 78.4931 15.2156C83.1928 18.4032 86.7347 22.4581 88.1819 28.0954C88.6465 29.2252 88.6351 30.4576 88.9588 31.6216C89.0578 32.4737 89.2597 33.3448 88.5932 34.0827C88.5856 45.7416 88.5742 57.4042 88.5666 69.063C88.3685 69.3255 87.9991 69.2 87.7782 69.4092L87.7858 69.413Z" fill="#FA6463"/>
<path d="M148.764 35.6119C135.095 35.6119 121.423 35.5929 107.754 35.6233C106.68 35.6233 105.777 35.5472 105.256 34.4859C104.239 34.1816 103.473 33.5236 102.78 32.759C102.597 32.215 102.639 31.6977 102.951 31.2108C103.18 30.9217 103.477 30.7391 103.827 30.6326C104.322 30.4957 104.829 30.4767 105.336 30.4767C118.89 30.4881 132.444 30.4386 145.999 30.5033C146.505 30.5033 147.012 30.5033 147.518 30.5718C148.052 30.6402 148.429 30.9331 148.68 31.401C148.897 32.8008 148.981 34.2044 148.771 35.6157L148.764 35.6119Z" fill="#EC2828"/>
<path d="M45.1384 36.7452C45.0927 38.145 45.8696 39.2862 46.3419 40.5225C40.9985 40.5225 35.6552 40.5225 30.3157 40.5225C29.9577 39.446 30.6394 38.6091 31.0126 37.7266C32.1133 35.1324 33.1644 32.5191 34.1394 29.8754C34.4974 27.7871 35.7314 26.0526 36.474 24.1164C36.7178 23.4812 37.3195 23.4241 37.9136 23.4279C39.3533 23.8653 40.115 24.8924 40.6329 26.2618C41.7602 29.2516 42.9828 32.2034 44.1748 35.1704C44.4071 35.7448 44.5557 36.3801 45.1384 36.7452Z" fill="#FDAA3C"/>
<path d="M137.315 15.0633C137.635 16.3871 136.569 15.7937 136.15 15.8013C133.042 15.8545 129.935 15.8279 126.827 15.8279C118.962 15.8279 111.094 15.8279 103.229 15.8317C102.049 14.6259 102.384 13.4961 103.404 12.4006C111.387 12.412 119.366 12.4082 127.349 12.4425C130.887 12.4577 134.25 13.2071 137.315 15.0557V15.0633Z" fill="#EC2827"/>
<path d="M11.6768 63.3229C14.6779 58.4692 17.6828 53.6193 20.6762 48.7617C21.0799 48.1075 21.4379 47.4342 22.3291 47.3809C23.2851 47.0994 24.1915 47.1109 24.9989 47.7956C25.772 49.4921 25.2883 51.2837 25.3607 53.0297C25.4369 54.8555 25.3455 56.6928 25.3264 58.5224C21.5789 59.6446 18.0522 61.3487 14.4036 62.7295C13.5277 63.0605 12.6822 63.5588 11.6806 63.3229H11.6768Z" fill="#FDBF59"/>
<path d="M117.107 2.09962C116.471 3.32446 114.369 3.76571 114.647 5.17695C114.864 6.27626 116.319 7.12833 117.21 8.10212C117.446 8.36458 117.835 8.56238 117.671 9.29653H103.412C102.414 7.32613 102.822 5.28726 103.096 3.256C104.311 2.21374 104.117 3.54889 104.227 4.00916C104.703 5.97195 104.673 5.98336 106.352 4.89926C107.304 4.28304 108.333 3.74289 109.17 2.99353C111.25 1.13724 113.718 1.03834 116.277 1.20571C116.814 1.23995 117.587 1.10681 117.107 2.10342V2.09962Z" fill="#FDA93D"/>
<path d="M103.229 26.8552C117.999 26.8552 132.768 26.8552 147.538 26.8552C147.648 26.9389 147.682 27.0454 147.648 27.1748C147.934 28.0458 147.374 28.2969 146.7 28.4681C137.312 28.6963 127.924 28.5403 118.536 28.5594C113.589 28.567 108.641 28.7077 103.694 28.449C103.443 28.392 103.218 28.2855 103.02 28.1257C102.746 27.6464 102.624 27.19 103.233 26.8552H103.229Z" fill="#EA282A"/>
<path d="M103.229 26.8552C103.245 27.2432 103.256 27.6274 103.271 28.0154C103.812 29.1223 103.523 30.2293 103.271 31.34C103.218 31.8611 103.168 32.3785 103.115 32.8996C102.662 33.2914 102.205 33.28 101.748 32.8996C100.967 30.8835 101.458 28.7838 101.367 26.7259C101.18 22.6292 101.264 18.5286 101.367 14.4318C101.382 13.8612 101.413 13.2945 101.725 12.7886C101.748 12.663 101.767 12.5375 101.79 12.4158C101.824 8.71082 101.858 5.00205 101.9 1.29709C101.904 0.813995 101.767 0.20918 102.422 0.0342025C103.089 -0.144579 103.268 0.391766 103.435 0.882464C103.865 1.54814 104.041 2.21382 103.405 2.86428C103.275 5.00966 103.237 7.15123 103.416 9.29661C103.416 10.3351 103.412 11.3697 103.408 12.4082C103.054 13.5379 103.009 14.6791 103.233 15.8393C103.054 19.51 103.058 23.1845 103.233 26.8552H103.229Z" fill="#545163"/>
<path d="M103.268 31.3363C103.039 30.2293 103.035 29.1224 103.268 28.0117L103.435 28.0345C104.89 28.5671 106.421 28.5518 107.925 28.5556C119.781 28.5861 131.637 28.5747 143.493 28.5671C144.628 28.5671 145.774 28.5937 146.814 28.0079C147.362 27.9927 147.541 27.6199 147.644 27.1672C148.33 28.4948 148.612 29.9174 148.672 31.3971C148.433 31.2754 148.196 31.1537 147.956 31.0358C146.707 30.4804 145.367 30.4804 144.049 30.4804C131.363 30.4576 118.673 30.4652 105.987 30.469C105.099 30.469 104.197 30.4043 103.454 31.0396C103.42 31.1575 103.355 31.2564 103.271 31.3401L103.268 31.3363Z" fill="#F24345"/>
<path d="M103.397 2.86438C103.408 2.20631 103.42 1.54444 103.427 0.882568C107.815 0.89398 112.206 0.905392 116.593 0.928215C117.001 0.928215 117.572 0.749433 117.732 1.29719C117.843 1.68138 117.492 1.96667 117.104 2.0998C116.121 1.14503 113.185 1.02712 111.768 1.93624C109.696 3.26379 107.647 4.63698 105.591 5.98735C104.399 6.76714 103.629 6.85083 103.77 5.01737C103.827 4.30224 104.06 3.48441 103.397 2.86438Z" fill="#FCBD58"/>
<path d="M98.8533 104.306C98.8533 109.939 98.8647 115.569 98.8418 121.202C98.838 122.081 99.1998 123.355 97.7374 123.374C96.2597 123.393 96.1797 122.218 96.1797 121.069C96.1873 109.806 96.1911 98.5429 96.1797 87.2758C96.1797 86.2526 96.2978 85.1647 97.4974 85.1418C98.7047 85.1152 98.8647 86.1917 98.8647 87.2226C98.8533 92.9169 98.8571 98.6151 98.8609 104.31L98.8533 104.306Z" fill="#676B85"/>
<path d="M87.7861 69.413C88.0489 69.2989 88.3117 69.181 88.5745 69.0669C88.8792 66.6058 90.3454 66.4536 92.3182 67.1193C92.8324 67.2943 93.4494 67.1611 94.0206 67.1611C111.505 67.1611 128.99 67.1878 146.475 67.1231C148.337 67.1155 149.073 67.6138 148.619 69.4701C128.975 69.4625 109.331 69.4549 89.6866 69.4434C89.0544 69.4434 88.4183 69.4244 87.7861 69.413Z" fill="#EB2727"/>
<path d="M88.6008 34.0865C88.5856 33.2002 88.5665 32.3139 88.5513 31.4314C88.5475 30.7314 89.115 30.5793 89.5796 30.5679C93.4681 30.4652 97.3642 30.1457 101.245 30.7467C101.969 31.2145 101.603 31.9525 101.698 32.5763C101.565 33.881 100.674 34.6114 99.6645 35.2542C96.3778 35.9998 93.0453 35.4482 89.7357 35.5852C88.7036 35.627 89.1759 34.444 88.6008 34.0903V34.0865Z" fill="#EC2827"/>
<path d="M99.6646 35.2504C100.049 34.2881 100.628 33.4893 101.561 32.9833C101.645 32.9719 101.733 32.9567 101.816 32.9453C102.247 32.9301 102.681 32.9149 103.111 32.8997C104.025 33.1621 104.726 33.7061 105.255 34.4897C105.393 36.8062 104.817 37.761 103.142 38.0044C101.215 38.2859 100.232 37.5023 99.6684 35.2543L99.6646 35.2504Z" fill="#E3E6E8"/>
<path d="M47.5451 40.4389C47.3928 35.4445 47.2176 30.4804 49.6246 25.8093C53.3455 18.601 61.0691 14.2227 68.8118 15.109C77.2019 16.0676 83.9849 22.0853 85.8815 30.1951C86.1748 31.4428 86.2623 32.6867 86.2623 33.9495C86.2623 45.6578 86.2624 57.3661 86.2585 69.0744C85.7482 69.3559 85.2036 69.4396 84.6209 69.4396C78.6872 69.4282 72.7574 69.432 66.8238 69.432C66.4429 69.432 66.0621 69.4434 65.7574 69.1581C65.9211 69.0136 66.0849 68.869 66.2487 68.7245C67.8254 66.8377 67.8825 64.6087 67.8482 62.2959C67.7759 57.1721 67.7683 52.0483 67.8482 46.9245C67.8825 44.7107 67.7454 42.6376 66.0887 40.9639C65.3232 40.3629 64.4168 40.5188 63.5484 40.515C58.2089 40.4808 52.8732 40.4618 47.5337 40.4389H47.5451Z" fill="#8E181A"/>
<path d="M66.0967 40.9639C67.7725 41.5383 68.4237 42.8087 68.4275 44.471C68.439 51.4169 68.4352 58.3627 68.4275 65.3124C68.4275 66.891 67.8258 68.1273 66.2567 68.7245C63.5679 67.3627 61.3742 65.2972 58.9329 63.5854C56.1299 61.6188 53.5325 59.3632 50.5428 57.6666C50.2838 56.8488 51.0455 56.6054 51.434 56.2021C53.0831 54.4942 54.8007 52.8471 56.4536 51.1354C56.8459 50.7322 57.5809 50.4811 57.3676 49.6747C60.1022 46.5936 63.0309 43.7065 66.1044 40.9639H66.0967Z" fill="#FEA83C"/>
<path d="M57.3637 49.6746C58.1025 50.5114 57.1276 50.7625 56.7886 51.1238C54.7358 53.3301 52.6259 55.4907 50.5388 57.6665C47.5225 60.158 46.3076 60.1542 43.2608 57.6589C41.7641 56.0879 40.2597 54.5207 38.7668 52.9459C38.2602 52.4095 37.6166 51.9721 37.4795 51.1657C39.6694 52.6834 41.3032 54.7908 43.2151 56.6052C45.7896 59.0511 48.0786 59.0815 50.6074 56.5481C52.8773 54.2734 55.1129 51.9683 57.3675 49.6746H57.3637Z" fill="#C8761D"/>
<path d="M24.9989 47.7955C24.0963 47.7384 23.1632 47.8906 22.333 47.3809C18.4407 45.5246 14.5636 43.6455 10.5571 42.0402C9.87536 41.7664 9.13651 41.5229 8.63379 40.9143C11.8025 41.5648 14.5522 43.2803 17.5304 44.4025C19.9603 45.3192 22.154 47.0537 24.9913 46.5935C25.4978 46.9891 25.5093 47.3885 24.9989 47.7917V47.7955Z" fill="#D18222"/>
<path d="M34.1396 29.8755C33.8044 32.7056 32.281 35.1134 31.3594 37.7381C31.028 38.6738 30.6662 39.5982 30.3159 40.5263C29.8969 40.4959 29.4894 40.378 29.7408 39.8568C31.3213 36.5779 32.262 33.0213 34.1396 29.8755Z" fill="#DA8D26"/>
<path d="M101.817 32.9452L101.695 33.0061L101.561 32.9832C101.539 32.3404 101.52 31.6975 101.497 31.0547C100.815 30.2064 100.99 29.187 100.925 28.217C100.857 27.7073 100.59 27.4372 100.049 27.4334C96.3286 27.403 92.6115 27.3802 88.8906 27.4524C88.5554 27.46 88.3155 27.6769 88.0794 27.8937C87.9841 27.9355 87.8889 27.9774 87.7937 28.0192C86.1599 22.9068 83.0636 18.8899 78.6533 15.8583C79.415 15.0899 80.4052 15.2534 81.3307 15.2496C86.6854 15.2268 92.0402 15.1621 97.3911 15.2763C99.402 15.3181 100.998 15.1089 101.501 12.8304C101.573 12.8152 101.649 12.8038 101.721 12.7961C101.996 19.5138 101.817 26.2314 101.817 32.949V32.9452Z" fill="#F14344"/>
<path d="M101.5 12.8228C101.508 13.264 101.47 13.7091 101.527 14.1427C101.702 15.474 101.142 15.8658 99.8209 15.8544C92.7638 15.805 85.7104 15.843 78.6533 15.8506C76.4557 14.7855 74.403 13.3819 71.916 12.8228H101.5Z" fill="#ED2726"/>
<path d="M101.5 27.9963C101.5 29.0158 101.5 30.0352 101.5 31.0547C97.7756 31.0547 94.0547 31.0394 90.33 31.0547C89.7245 31.0547 89.0504 30.8607 88.5553 31.4312C88.003 30.3585 88.0906 29.1451 87.7974 28.0154L87.8355 27.9773C88.3877 27.4562 89.0808 27.4372 89.7778 27.4372C93.0417 27.4334 96.3056 27.4334 99.5694 27.4372C100.27 27.4372 100.956 27.4828 101.504 28.0002L101.5 27.9963Z" fill="#F24243"/>
<path d="M103.45 31.0357C103.637 29.9212 104.528 29.9097 105.343 29.9097C118.402 29.8945 131.458 29.8717 144.517 29.9478C145.671 29.9554 147.08 29.8451 147.956 31.0357C133.122 31.0357 118.288 31.0357 103.45 31.0357Z" fill="#F24243"/>
<path d="M146.814 28.0117C146.231 29.1947 145.039 29.1034 144.072 29.1072C131.805 29.1567 119.534 29.1833 107.266 29.073C106.025 29.0616 104.46 29.2708 103.435 28.0345C117.896 28.0269 132.357 28.0193 146.814 28.0117Z" fill="#F24243"/>
<path d="M102.868 36.6084C102.186 36.5893 101.805 36.228 101.801 35.5623C101.794 34.9118 102.137 34.4706 102.822 34.463C103.485 34.4554 103.908 34.8852 103.942 35.5014C103.98 36.1671 103.477 36.4752 102.868 36.6084Z" fill="#575D6E"/>
<path d="M101.5 27.9965C96.9452 27.9889 92.3902 27.9813 87.8353 27.9737C87.7096 26.9809 88.2999 26.8439 89.1035 26.8477C92.8168 26.8668 96.5301 26.8668 100.243 26.8477C101.07 26.8439 101.611 27.0303 101.5 27.9965Z" fill="#EA292A"/>
</g>
<defs>
<clipPath id="clip0_4411_3625">
<rect width="149" height="128" fill="white"/>
</clipPath>
</defs>
</svg>
