<svg width="59" height="115" viewBox="0 0 59 115" fill="none" xmlns="http://www.w3.org/2000/svg">
<g clip-path="url(#clip0_3670_3471)">
<path d="M16.0281 52.3639C16.7169 52.1366 17.0877 51.3869 16.8572 50.6898C16.6267 49.9913 15.8809 49.6088 15.1921 49.8361C14.5034 50.0634 14.1326 50.8131 14.3631 51.5102C14.5936 52.2087 15.3394 52.5912 16.0281 52.3639Z" fill="#F6CBB3"/>
<path d="M25.5782 60.608C26.5683 60.2823 27.1016 59.2041 26.7697 58.2008C26.4378 57.1974 25.3671 56.6472 24.377 56.9743C23.3869 57.3 22.8536 58.3782 23.1855 59.3815C23.5174 60.3849 24.5881 60.9351 25.5782 60.608Z" fill="#F6CBB3"/>
<path d="M29.683 53.0357C30.3496 52.8167 30.7093 52.0891 30.4857 51.4128C30.2621 50.7365 29.54 50.3665 28.8734 50.5855C28.2069 50.8044 27.8472 51.532 28.0708 52.2083C28.2943 52.8846 29.0165 53.2546 29.683 53.0357Z" fill="#F6CBB3"/>
<path d="M40.5871 50.0717C41.4078 49.8015 41.8494 48.9076 41.5745 48.0747C41.2995 47.2418 40.4108 46.7872 39.59 47.0575C38.7693 47.3277 38.3277 48.2216 38.6027 49.0545C38.8776 49.8874 39.7664 50.342 40.5871 50.0717Z" fill="#F6CBB3"/>
<path d="M37.3167 42.5503C37.7472 42.4089 37.9791 41.9405 37.8347 41.504C37.6902 41.0674 37.225 40.8291 36.7945 40.9704C36.364 41.1118 36.1321 41.5802 36.2766 42.0167C36.421 42.4533 36.8862 42.6916 37.3167 42.5503Z" fill="#F6CBB3"/>
<path d="M30.1497 44.9106C30.5802 44.7693 30.8121 44.3009 30.6677 43.8643C30.5233 43.4278 30.058 43.1894 29.6276 43.3308C29.1971 43.4721 28.9651 43.9405 29.1096 44.3771C29.254 44.8136 29.7192 45.052 30.1497 44.9106Z" fill="#F6CBB3"/>
<path d="M51.3369 43.8035C52.0896 43.5554 52.4951 42.735 52.2437 41.9714C51.991 41.2077 51.1758 40.7892 50.4232 41.0373C49.6705 41.2854 49.265 42.1058 49.5164 42.8694C49.7691 43.633 50.5843 44.0515 51.3369 43.8035Z" fill="#F6CBB3"/>
<path d="M57.3346 49.2748C57.9373 49.0766 58.2609 48.4211 58.0595 47.81C57.8582 47.1988 57.2055 46.8648 56.6028 47.063C56.0001 47.2612 55.6765 47.9167 55.8779 48.5278C56.0793 49.139 56.732 49.473 57.3346 49.2748Z" fill="#F6CBB3"/>
<path d="M58.858 43.4284C59.3746 43.258 59.6523 42.6967 59.4787 42.1728C59.3051 41.649 58.7469 41.3621 58.2303 41.5326C57.7137 41.703 57.436 42.2643 57.6096 42.7882C57.7831 43.312 58.3414 43.5989 58.858 43.4284Z" fill="#F6CBB3"/>
<path d="M81.066 76.1485L84.01 85.0513C85.6875 90.1249 82.9185 95.6157 77.8304 97.2912L30.0845 113.014C25.0005 114.688 19.4972 111.922 17.8196 106.847L14.8756 97.9439L81.0646 76.1485H81.066ZM82.02 74.2582L80.5952 74.7266L14.4062 96.522L12.9814 96.9905L13.4508 98.4124L16.3948 107.315C18.3321 113.173 24.6839 116.368 30.5539 114.434L78.2997 98.7117C84.1697 96.7784 87.3706 90.4395 85.4334 84.5815L82.4894 75.6787L82.02 74.2568V74.2582Z" fill="#F6CBB3"/>
<path d="M47.5486 19.6791C49.74 23.0606 51.9563 24.2663 55.8349 25.7215C62.0007 27.9208 66.7139 32.7408 68.765 38.9453L70.7355 44.9073L4.54656 66.7027L2.57601 60.7407C0.523532 54.5349 1.43729 47.8633 5.0812 42.4349C7.33088 38.962 8.39044 36.6878 8.13493 32.6688L10.0583 32.0354L45.6517 20.3041L47.55 19.6791H47.5486ZM48.1791 17.8955L47.0793 18.2572L45.1809 18.8822L9.5861 30.6135L7.66416 31.2469L6.56432 31.6086L6.63792 32.7616C6.86289 36.2956 5.99357 38.2663 3.82722 41.6103C-0.0694375 47.4254 -1.04568 54.5681 1.15122 61.2105L3.12177 67.1725L3.59114 68.5944L5.01593 68.126L71.2049 46.3306L72.6297 45.8621L72.1603 44.4403L70.1898 38.4783C67.9929 31.8359 62.9506 26.6749 56.3515 24.3176C52.6146 22.9165 50.7398 21.8466 48.8082 18.867L48.1791 17.8969V17.8955Z" fill="#F6CBB3"/>
<path d="M77.4359 96.0973L29.69 111.82C25.2643 113.278 20.4761 110.869 19.0166 106.454L15.6018 96.1264L79.3981 75.1182L82.8129 85.4456C84.2724 89.8623 81.8602 94.6408 77.4359 96.0973ZM17.496 97.0785L20.44 105.984C21.6412 109.616 25.5795 111.597 29.2193 110.398L76.9651 94.6754C80.6049 93.4766 82.5893 89.5463 81.3881 85.914L78.4441 77.0085L17.496 97.0785Z" fill="#F6CBB3"/>
<path d="M70.0329 46.7918L6.23657 67.8001L3.77165 60.3469C1.83999 54.5055 2.70236 48.2276 6.13797 43.1207C7.77523 40.5943 8.8473 37.6715 9.23058 34.6794C9.38472 33.4598 9.38611 33.0552 9.30834 32.0948C9.29446 31.9077 9.2764 31.7067 9.25557 31.4808L9.2028 30.8891L45.6572 18.8848L46.2877 19.9117C46.7918 20.728 47.0098 21.0564 47.8736 21.9558C49.9719 24.1344 52.5771 25.8459 55.4072 26.9047C58.2248 27.9081 60.8286 29.5725 62.9242 31.7137C65.0225 33.8576 66.6278 36.4949 67.5679 39.3387L70.0329 46.7918ZM7.1906 65.9097L68.1387 45.8397L66.1445 39.8085C65.2752 37.1795 63.7907 34.7432 61.8521 32.76C59.9163 30.781 57.5097 29.2427 54.8934 28.3114C51.8438 27.1708 49.0456 25.3332 46.7932 22.9925C45.8586 22.0196 45.5781 21.6121 45.0115 20.6975L45.0004 20.6795L10.8012 31.9409C10.8012 31.9534 10.8026 31.9659 10.804 31.9797C10.8887 33.0275 10.8887 33.5347 10.7193 34.8707C10.3068 38.0845 9.15559 41.2234 7.39057 43.9466C4.2077 48.6766 3.41059 54.4806 5.19644 59.8799L7.1906 65.9111V65.9097Z" fill="#F6CBB3"/>
<path d="M67.2416 47.5409L65.8571 47.9969L63.4199 40.6269C61.8965 36.0175 58.4248 32.4281 53.8769 30.7471L9.64856 45.3111C6.99756 49.3605 6.35043 54.3081 7.87382 58.9174L10.2235 65.8744L8.84173 66.3387L6.49069 59.3775C4.80343 54.2748 5.55055 48.7993 8.54039 44.3451L8.68203 44.0971L53.931 29.1963L54.1935 29.3127C59.2525 31.1171 63.12 35.0737 64.8058 40.1709L67.243 47.5409H67.2416Z" fill="#F6CBB3"/>
<path d="M75.8612 93.5509L29.4402 108.837C26.1684 109.914 22.6592 108.229 21.6177 105.078L18.4307 95.4398L19.7874 94.9936L22.9744 104.632C23.7688 107.035 26.4684 108.314 28.9916 107.484L75.4127 92.1983C77.9359 91.3668 79.3427 88.7364 78.5483 86.332L75.3613 76.6933L76.718 76.2471L79.9051 85.8857C80.9466 89.0358 79.133 92.4755 75.8612 93.5523V93.5509Z" fill="#F6CBB3"/>
<path d="M57.9528 86.2818C57.2862 86.5007 56.9265 87.2283 57.1501 87.9046C57.3737 88.5809 58.0958 88.9509 58.7624 88.732C59.4289 88.513 59.7886 87.7854 59.565 87.1091C59.3415 86.4328 58.6193 86.0628 57.9528 86.2818Z" fill="#F6CBB3"/>
<path d="M47.0488 89.2459C46.2281 89.5162 45.7865 90.4101 46.0614 91.243C46.3364 92.0759 47.2251 92.5304 48.0459 92.2602C48.8666 91.9899 49.3082 91.0961 49.0332 90.2632C48.7583 89.4303 47.8695 88.9757 47.0488 89.2459Z" fill="#F6CBB3"/>
<path d="M50.3204 96.7683C49.8899 96.9096 49.658 97.378 49.8024 97.8146C49.9469 98.2511 50.4121 98.4895 50.8426 98.3481C51.2731 98.2068 51.505 97.7384 51.3605 97.3018C51.2161 96.8653 50.7509 96.6269 50.3204 96.7683Z" fill="#F6CBB3"/>
<path d="M57.4874 94.4089C57.0569 94.5502 56.825 95.0187 56.9694 95.4552C57.1139 95.8918 57.5791 96.1301 58.0096 95.9888C58.4401 95.8474 58.672 95.379 58.5275 94.9424C58.3831 94.5059 57.9179 94.2675 57.4874 94.4089Z" fill="#F6CBB3"/>
<path d="M36.3004 95.5158C35.5477 95.7639 35.1422 96.5843 35.3936 97.3479C35.6463 98.1115 36.4615 98.53 37.2141 98.282C37.9668 98.0339 38.3723 97.2135 38.1209 96.4499C37.8682 95.6863 37.053 95.2677 36.3004 95.5158Z" fill="#F6CBB3"/>
<path d="M28.7791 95.89C28.2625 96.0605 27.9848 96.6217 28.1584 97.1456C28.332 97.6694 28.8902 97.9563 29.4068 97.7859C29.9234 97.6154 30.2011 97.0541 30.0276 96.5303C29.854 96.0064 29.2957 95.7195 28.7791 95.89Z" fill="#F6CBB3"/>
<path d="M38.8903 1.72266C41.2427 0.947969 43.7771 2.22296 44.5533 4.56783L48.8319 17.509L6.06032 31.5949L1.78178 18.6537C1.00689 16.3088 2.28309 13.7783 4.63553 13.0036L38.8903 1.72266ZM38.4209 0.300773L4.16477 11.5817C1.03189 12.6141 -0.677586 15.9956 0.356986 19.1221L4.63553 32.0633L5.10491 33.4852L6.5297 33.0168L49.3027 18.9323L50.7274 18.4638L50.2581 17.042L45.9795 4.1008C44.9463 0.975687 41.5566 -0.728921 38.4223 0.303545L38.4209 0.300773Z" fill="#F6CBB3"/>
<path d="M41.4675 1.28591L40.0432 1.75488L45.6036 18.573L47.0278 18.104L41.4675 1.28591Z" fill="#F6CBB3"/>
<path d="M38.8281 1.74295L37.4038 2.21191L43.0869 19.4012L44.5111 18.9322L38.8281 1.74295Z" fill="#F6CBB3"/>
<path d="M36.3127 2.57205L34.8884 3.04102L40.5715 20.2303L41.9957 19.7613L36.3127 2.57205Z" fill="#F6CBB3"/>
<path d="M33.7971 3.40017L32.3728 3.86914L38.0559 21.0584L39.4801 20.5894L33.7971 3.40017Z" fill="#F6CBB3"/>
<path d="M31.2802 4.2283L29.856 4.69727L35.539 21.8865L36.9633 21.4175L31.2802 4.2283Z" fill="#F6CBB3"/>
<path d="M28.7648 5.0574L27.3406 5.52637L33.0236 22.7156L34.4479 22.2466L28.7648 5.0574Z" fill="#F6CBB3"/>
<path d="M26.2475 5.88455L24.8232 6.35352L30.5063 23.5428L31.9306 23.0738L26.2475 5.88455Z" fill="#F6CBB3"/>
<path d="M23.7336 6.71365L22.3093 7.18262L27.9924 24.3719L29.4166 23.9029L23.7336 6.71365Z" fill="#F6CBB3"/>
<path d="M21.2167 7.54177L19.7925 8.01074L25.4755 25.2L26.8998 24.731L21.2167 7.54177Z" fill="#F6CBB3"/>
<path d="M18.7011 8.37088L17.2769 8.83984L22.9599 26.0291L24.3842 25.5601L18.7011 8.37088Z" fill="#F6CBB3"/>
<path d="M16.1843 9.19998L14.76 9.66895L20.4431 26.8582L21.8673 26.3892L16.1843 9.19998Z" fill="#F6CBB3"/>
<path d="M13.6689 10.0281L12.2446 10.4971L17.9277 27.6863L19.3519 27.2173L13.6689 10.0281Z" fill="#F6CBB3"/>
<path d="M11.153 10.8562L9.72876 11.3252L15.4118 28.5144L16.8361 28.0455L11.153 10.8562Z" fill="#F6CBB3"/>
<path d="M8.63617 11.6844L7.21191 12.1533L12.895 29.3426L14.3192 28.8736L8.63617 11.6844Z" fill="#F6CBB3"/>
<path d="M6.12079 12.5125L4.69653 12.9814L10.3796 30.1707L11.8039 29.7017L6.12079 12.5125Z" fill="#F6CBB3"/>
<path d="M3.72773 13.7136L2.30347 14.1826L7.86339 30.9994L9.28765 30.5304L3.72773 13.7136Z" fill="#F6CBB3"/>
<path d="M71.273 46.527L80.5967 74.7265L14.4077 96.5219L5.08403 68.3224L71.273 46.527ZM72.2271 44.6367L70.8023 45.1051L4.61327 66.9019L3.18848 67.3704L3.65785 68.7922L12.9815 96.9917L13.4509 98.4136L14.8757 97.9452L81.0647 76.1498L82.4895 75.6814L82.0201 74.2595L72.6964 46.06L72.2271 44.6381V44.6367Z" fill="#F6CBB3"/>
<path d="M12.3565 75.9104L51.4425 63.04C51.9646 62.8681 52.2479 62.3068 52.0757 61.7858C51.9035 61.2647 51.3411 60.982 50.8189 61.1538L11.733 74.0243C11.2108 74.1961 10.9275 74.7574 11.0997 75.2785C11.2719 75.7996 11.8343 76.0823 12.3565 75.9104Z" fill="#F6CBB3"/>
<path d="M13.7273 80.0579L52.8133 67.1874C53.3355 67.0156 53.6187 66.4543 53.4465 65.9332C53.2744 65.4121 52.7119 65.1294 52.1898 65.3013L13.1038 78.1717C12.5817 78.3436 12.2984 78.9049 12.4706 79.4259C12.6428 79.947 13.2052 80.2297 13.7273 80.0579Z" fill="#F6CBB3"/>
<path d="M15.0992 84.2073L54.1851 71.3368C54.7073 71.165 54.9906 70.6037 54.8184 70.0826C54.6462 69.5616 54.0838 69.2788 53.5616 69.4507L14.4756 82.3212C13.9535 82.493 13.6702 83.0543 13.8424 83.5754C14.0146 84.0964 14.577 84.3792 15.0992 84.2073Z" fill="#F6CBB3"/>
<path d="M16.4712 88.3567L55.5572 75.4863C56.0794 75.3144 56.3626 74.7531 56.1904 74.232C56.0183 73.711 55.4558 73.4283 54.9337 73.6001L15.8477 86.4706C15.3256 86.6424 15.0423 87.2037 15.2145 87.7248C15.3867 88.2459 15.9491 88.5286 16.4712 88.3567Z" fill="#F6CBB3"/>
<path d="M55.7197 64.981L61.9605 62.9258L59.9011 56.6978L64.063 55.3271L66.1224 61.5566L72.3631 59.5L73.7366 63.6534L67.4958 65.7086L69.5552 71.9367L65.3933 73.3073L63.3339 67.0792L57.0931 69.1345L55.7197 64.981Z" fill="#F6CBB3"/>
</g>
<defs>
<clipPath id="clip0_3670_3471">
<rect width="86" height="115" fill="white"/>
</clipPath>
</defs>
</svg>
