<svg width="16" height="14" viewBox="0 0 16 14" fill="none" xmlns="http://www.w3.org/2000/svg">
<path d="M3.33296 7.66667C3.33296 8.76559 3.77611 9.76101 4.49346 10.484C4.56264 10.5537 4.59723 10.5886 4.61765 10.6221C4.63713 10.6541 4.64847 10.6816 4.65718 10.718C4.66629 10.7562 4.66629 10.7997 4.66629 10.8866V12.4667C4.66629 12.6534 4.66629 12.7467 4.70263 12.818C4.73458 12.8807 4.78558 12.9317 4.8483 12.9637C4.9196 13 5.01294 13 5.19963 13H6.46629C6.65298 13 6.74632 13 6.81763 12.9637C6.88035 12.9317 6.93134 12.8807 6.9633 12.818C6.99963 12.7467 6.99963 12.6534 6.99963 12.4667V12.2C6.99963 12.0133 6.99963 11.92 7.03596 11.8487C7.06792 11.786 7.11891 11.735 7.18163 11.703C7.25294 11.6667 7.34628 11.6667 7.53296 11.6667H8.46629C8.65298 11.6667 8.74632 11.6667 8.81763 11.703C8.88035 11.735 8.93134 11.786 8.9633 11.8487C8.99963 11.92 8.99963 12.0133 8.99963 12.2V12.4667C8.99963 12.6534 8.99963 12.7467 9.03596 12.818C9.06792 12.8807 9.11891 12.9317 9.18163 12.9637C9.25294 13 9.34628 13 9.53296 13H10.7997C10.9864 13 11.0797 13 11.151 12.9637C11.2137 12.9317 11.2647 12.8807 11.2967 12.818C11.333 12.7467 11.333 12.6534 11.333 12.4667V11.8162C11.333 11.6815 11.333 11.6142 11.3522 11.5601C11.3706 11.5083 11.3937 11.472 11.433 11.4335C11.4739 11.3933 11.5433 11.3611 11.6821 11.2967C12.3369 10.9927 12.8957 10.5167 13.3004 9.92678C13.3716 9.82304 13.4072 9.77117 13.4452 9.74053C13.4815 9.71123 13.5141 9.69405 13.5588 9.68067C13.6056 9.66667 13.6611 9.66667 13.7722 9.66667H14.133C14.3197 9.66667 14.413 9.66667 14.4843 9.63034C14.5471 9.59838 14.5981 9.54739 14.63 9.48466C14.6663 9.41336 14.6663 9.32002 14.6663 9.13333V6.85717C14.6663 6.67944 14.6663 6.59058 14.6333 6.52202C14.6006 6.454 14.5457 6.39911 14.4777 6.36635C14.4091 6.33333 14.3202 6.33333 14.1425 6.33333C14.0139 6.33333 13.9495 6.33333 13.8977 6.31587C13.8419 6.29704 13.8027 6.27199 13.7622 6.22918C13.7246 6.18948 13.6939 6.12309 13.6325 5.99032C13.4355 5.56415 13.1658 5.17852 12.8392 4.84936C12.77 4.77964 12.7354 4.74478 12.715 4.71125C12.6955 4.67926 12.6842 4.65172 12.6755 4.6153C12.6663 4.57711 12.6663 4.53367 12.6663 4.44678V3.70705C12.6663 3.46702 12.6663 3.34701 12.6164 3.26634C12.5726 3.19567 12.504 3.14392 12.424 3.12123C12.3327 3.09533 12.2173 3.1283 11.9865 3.19424L10.4048 3.64615C10.3779 3.65383 10.3645 3.65767 10.3508 3.66036C10.3387 3.66276 10.3264 3.66447 10.3141 3.66551C10.3002 3.66667 10.2862 3.66667 10.2583 3.66667H9.97237M3.33296 7.66667C3.33296 6.13063 4.19877 4.7968 5.46899 4.1266M3.33296 7.66667H2.66634C1.92996 7.66667 1.33301 7.06971 1.33301 6.33333C1.33301 5.83981 1.60114 5.40892 1.99967 5.17838M9.99967 3.33333C9.99967 4.622 8.95501 5.66667 7.66634 5.66667C6.37768 5.66667 5.33301 4.622 5.33301 3.33333C5.33301 2.04467 6.37768 1 7.66634 1C8.95501 1 9.99967 2.04467 9.99967 3.33333Z" stroke="#344054" stroke-width="1.06667" stroke-linecap="round" stroke-linejoin="round"/>
</svg>
