<svg width="44" height="41" viewBox="0 0 44 41" fill="none" xmlns="http://www.w3.org/2000/svg">
<path d="M19.7261 20.6132C20.1621 19.9202 20.5576 19.2157 20.9203 18.4862L13.865 11.4662H13.867C12.3814 9.99389 10.3673 9.1742 8.27213 9.18766C6.17501 9.20302 4.17242 10.0515 2.7099 11.545C0.973572 13.2803 -0.000732422 15.628 -0.000732422 18.0775C-0.000732422 20.525 0.973572 22.8727 2.7099 24.608L8.73491 30.6029C13.2629 28.3569 17.0694 24.8959 19.7261 20.6132ZM2.60771 18.8625C2.49389 17.7856 3.74021 14.288 5.16979 15.3841C5.47461 15.6913 5.47461 16.1865 5.16979 16.4937C3.85791 17.8029 3.85791 19.9202 5.16979 21.2313L10.2613 26.2974C10.9809 27.0057 9.87355 28.1402 9.15393 27.3993L4.05497 22.3332H4.05304C3.12506 21.4137 2.60579 20.164 2.60771 18.8625Z" fill="#979797"/>
<path d="M28.3135 25.8429L22.0841 19.6445C19.7574 24.1019 16.2848 27.8646 12.021 30.5497C11.338 30.9932 10.6281 31.3886 9.90845 31.7687L16.092 37.9213C24.4072 45.5979 35.9728 34.1528 28.3135 25.8429Z" fill="#979797"/>
<path d="M40.7031 2.484C39.0806 0.892623 36.8947 0 34.6144 0C32.3359 0 30.15 0.892623 28.5257 2.484L22.0354 8.9418H22.0373C24.6611 14.1976 28.9405 18.4553 34.2227 21.0662L40.705 14.6084L40.7031 14.6103C42.3121 12.9979 43.215 10.8191 43.215 8.54616C43.215 6.27524 42.3121 4.09651 40.7031 2.484ZM33.2482 18.1039C32.9318 18.0981 32.6502 17.9062 32.5305 17.6163C32.409 17.3264 32.4707 16.9924 32.6907 16.7659L37.7822 11.6998V11.7017C39.0922 10.3906 39.0922 8.27323 37.7822 6.96408C37.4735 6.65694 37.4755 6.16168 37.7822 5.85454C38.0909 5.54932 38.5887 5.54932 38.8973 5.85454C40.8092 7.77994 40.8092 10.8784 38.8973 12.8038L33.7984 17.8699C33.6537 18.0196 33.4566 18.1039 33.2482 18.1039Z" fill="#979797"/>
<path d="M21.2602 10.8292C21.1194 10.595 20.994 10.3531 20.8666 10.1094L17.803 13.1654C18.0326 13.3824 28.9813 24.2092 29.9572 25.313L33.0517 22.2339C28.0856 19.6597 23.9865 15.6933 21.2602 10.8292Z" fill="#979797"/>
</svg>
