<svg width="78" height="123" viewBox="0 0 78 123" fill="none" xmlns="http://www.w3.org/2000/svg">
<g clip-path="url(#clip0_3670_3455)">
<path d="M43.688 110.995L49.0172 108.582C49.3749 108.421 49.5777 108.037 49.5106 107.65C49.4435 107.263 49.1238 106.969 48.7324 106.937L48.5408 106.921C48.4736 106.915 48.4052 106.918 48.3388 106.928C46.3617 107.233 44.3952 107.446 42.4932 107.56C39.4136 107.752 36.3689 107.697 33.4411 107.398C28.8025 106.932 24.2599 105.845 19.9379 104.164C12.9597 101.456 6.2529 97.0864 0.00256468 91.1768C-0.00447421 91.171 -0.0107978 91.1641 -0.017833 91.1583C-3.21781 88.1308 -6.38236 84.6214 -9.42182 80.7274C-13.1669 75.9361 -16.8666 70.3708 -20.4188 64.1852C-24.1152 57.7454 -27.7792 50.4071 -31.3138 42.3678C-28.9371 39.747 -26.4855 37.2461 -24.0213 34.928C-21.3312 32.3977 -18.5407 29.9995 -15.7252 27.8007C-13.2428 25.8583 -10.6754 24.0166 -8.09399 22.3279C-4.25206 19.8106 -0.242751 17.5334 3.82118 15.5599C4.24097 15.3558 4.42229 14.8541 4.22966 14.4287C4.03702 14.0032 3.54032 13.8079 3.11077 13.989C2.16412 14.3872 1.24902 14.7864 0.391442 15.1746C-13.8658 21.627 -26.8825 31.337 -38.297 44.0359C-38.5235 44.2875 -38.5818 44.6484 -38.446 44.9582C-28.09 68.6334 -17.0864 85.4624 -4.80744 96.4072C2.04261 102.513 9.43239 106.853 17.1576 109.305C25.2595 111.877 34.0148 112.466 43.1845 111.057C43.2778 111.073 43.3739 111.074 43.4691 111.059C43.543 111.047 43.6172 111.026 43.6886 110.993L43.688 110.995ZM-24.5921 33.1019C-24.7962 33.2916 -24.9996 33.4811 -25.2026 33.6723C-27.8306 36.1439 -30.4433 38.8206 -32.9681 41.6272C-33.1946 41.8789 -33.2528 42.2397 -33.1169 42.5504C-29.4881 50.8468 -25.7193 58.4152 -21.914 65.0452C-18.321 71.301 -14.5753 76.9357 -10.7808 81.7907C-7.68227 85.7599 -4.45423 89.3394 -1.1849 92.4299C-1.17786 92.4357 -1.17154 92.4426 -1.16437 92.4493C5.24337 98.5038 12.1331 102.987 19.313 105.774C23.7798 107.51 28.4749 108.635 33.2667 109.116C36.2865 109.424 39.4258 109.48 42.5977 109.283C42.8661 109.266 43.1361 109.248 43.4066 109.229L43.2335 109.307C43.2145 109.308 43.195 109.311 43.1763 109.314C10.3622 114.488 -15.0096 93.9798 -36.6442 44.7784C-32.8034 40.5411 -28.7816 36.6457 -24.5928 33.1029L-24.5921 33.1019Z" fill="#F6CFB9"/>
<path d="M49.2148 108.412C49.9354 107.81 50.5741 107.258 51.1677 106.724C58.9581 99.7321 64.4093 91.4177 67.3693 82.0125C72.6978 65.0813 70.3399 44.2067 60.1611 18.1934C58.2904 13.42 56.1255 8.39362 53.7272 3.2536L53.4924 2.74945L52.9363 2.75544C48.1865 2.80971 43.4802 3.10911 38.9471 3.64687C36.1737 3.97582 33.4043 4.40095 30.7155 4.91003C27.7002 5.48175 24.6715 6.18295 21.7111 6.9945C17.2994 8.20983 12.9398 9.70815 8.75405 11.4482C7.72186 11.8784 6.70289 12.3203 5.72325 12.763C4.81686 13.173 3.92341 13.5932 3.06849 14.009C-1.06174 16.0149 -5.13497 18.3285 -9.03773 20.8851C-11.6593 22.6003 -14.2667 24.4702 -16.7863 26.4421C-19.6427 28.6737 -22.4739 31.1062 -25.2019 33.6723C-27.8299 36.1439 -30.4425 38.8206 -32.9673 41.6272L-33.3388 42.0407L-33.1162 42.5503C-29.4873 50.8468 -25.7186 58.4151 -21.9132 65.0452C-18.3202 71.301 -14.5746 76.9357 -10.7801 81.7907C-7.68155 85.7598 -4.4535 89.3393 -1.18417 92.4299L-1.14014 92.4708C5.26059 98.5143 12.143 102.99 19.3146 105.774C23.7814 107.51 28.4765 108.635 33.2682 109.116C36.2881 109.423 39.4274 109.48 42.5993 109.283C44.5529 109.164 46.5726 108.946 48.6067 108.632L49.0334 108.564L49.2156 108.412L49.2148 108.412ZM-9.42279 80.7277C-13.1679 75.9363 -16.8676 70.371 -20.4197 64.1855C-24.1162 57.7456 -27.7802 50.4073 -31.3148 42.368C-28.9381 39.7473 -26.4865 37.2463 -24.0223 34.9283C-21.3322 32.3979 -18.5416 29.9998 -15.7262 27.8009C-13.2438 25.8585 -10.6764 24.0168 -8.09496 22.3281C-4.25303 19.8108 -0.243721 17.5337 3.82092 15.5591C4.66208 15.1499 5.54019 14.7375 6.43183 14.3333C7.39515 13.8976 8.39865 13.4624 9.41367 13.0394C13.5333 11.3273 17.8242 9.8522 22.1658 8.65594C25.0811 7.85683 28.0651 7.16538 31.0339 6.60283C33.6839 6.1017 36.4142 5.68282 39.1483 5.35841C43.4436 4.84906 47.8982 4.55673 52.3981 4.48745C54.688 9.41801 56.7572 14.239 58.5539 18.8218C68.5855 44.454 70.9306 64.9538 65.7253 81.4946C62.8596 90.6003 57.5747 98.657 50.016 105.441C49.4879 105.916 48.9222 106.407 48.2919 106.936C46.3307 107.236 44.3804 107.446 42.4923 107.561C39.4135 107.752 36.3679 107.698 33.4401 107.399C28.8016 106.933 24.2589 105.845 19.9369 104.164C12.9587 101.456 6.25193 97.0867 0.0015947 91.1771L-0.0413125 91.1377C-3.23439 88.1152 -6.38993 84.6131 -9.42365 80.7278L-9.42279 80.7277Z" fill="#F6CFB9"/>
<path d="M44.3808 97.7116C45.8912 96.4392 47.313 95.0868 48.6028 93.6943C48.9532 93.3182 49.3032 92.9282 49.6415 92.5357C57.4284 83.5314 60.7195 72.484 59.7023 58.7607C58.8203 46.8598 54.6617 33.0776 46.9899 16.626L46.7578 16.1284L46.2087 16.1289C44.2685 16.1293 42.3267 16.1858 40.4354 16.297C40.0512 16.32 39.6681 16.3446 39.2836 16.3712C36.8566 16.5444 34.4529 16.8082 32.1401 17.156C31.4796 17.2555 30.8108 17.3632 30.1527 17.478C27.7742 17.8895 25.3962 18.4073 23.087 19.0171C21.0544 19.553 19.0192 20.1757 17.0387 20.8682C14.8534 21.6318 12.6732 22.5035 10.5588 23.4599C10.4052 23.5298 10.2491 23.6001 10.1106 23.6667C6.33158 25.4046 2.63849 27.4733 -0.867749 29.8166C-3.14835 31.3421 -5.3948 33.0104 -7.54296 34.7755C-10.1444 36.9114 -12.7002 39.2676 -15.1396 41.7797C-16.2372 42.9077 -17.364 44.1257 -18.4878 45.4009L-18.8516 45.8132L-18.6308 46.317C-17.0068 50.0263 -15.3458 53.5579 -13.694 56.8145C-10.3755 63.3654 -6.89824 69.1913 -3.35703 74.1303C-0.649314 77.9011 2.16965 81.2608 5.02136 84.1162C9.08882 88.1975 13.41 91.4444 17.8656 93.7653C20.3465 95.0584 22.9259 96.0959 25.5323 96.8491C27.6407 97.4586 29.8194 97.8972 32.0074 98.1538C34.39 98.4342 36.8584 98.509 39.344 98.3752C40.0069 98.34 40.69 98.2892 41.3733 98.2228C42.2325 98.1395 43.101 98.0322 43.9546 97.9027L44.1946 97.8661L44.3805 97.7099L44.3808 97.7116ZM-13.903 42.983C-11.5087 40.5165 -8.99999 38.2035 -6.44848 36.1096C-4.34357 34.3793 -2.1439 32.7455 0.0903562 31.2519C3.52099 28.9591 7.13495 26.9353 10.8457 25.2284C10.985 25.1616 11.1281 25.0969 11.2694 25.0324C13.3374 24.0966 15.4693 23.2439 17.6076 22.4974C19.546 21.8195 21.538 21.2098 23.5279 20.6851C25.7894 20.0873 28.1176 19.58 30.4479 19.178C31.0934 19.0661 31.7493 18.9595 32.397 18.8621C34.6663 18.5204 37.0247 18.2613 39.4052 18.0919C39.7828 18.0656 40.1599 18.042 40.5381 18.0191C42.2168 17.92 43.9374 17.8649 45.6609 17.8555C61.439 51.8957 62.287 75.2778 48.3376 91.4077C48.0126 91.785 47.6783 92.1586 47.3411 92.5195C46.1501 93.8045 44.8442 95.053 43.457 96.2342C42.7116 96.3428 41.9557 96.4349 41.2081 96.5072C40.5496 96.5706 39.8924 96.6198 39.2528 96.654C36.8649 96.7826 34.4947 96.7113 32.2089 96.4424C30.1143 96.1971 28.0283 95.7768 26.0112 95.1929C23.5146 94.4719 21.0421 93.4766 18.6629 92.2361C14.3641 89.9966 10.1862 86.855 6.24227 82.8979C3.45594 80.1079 0.697212 76.8198 -1.95568 73.1248C-5.44443 68.2576 -8.8763 62.5082 -12.1554 56.0348C-13.7171 52.9549 -15.2883 49.6252 -16.8284 46.1301C-15.8447 45.0256 -14.863 43.9685 -13.9023 42.982L-13.903 42.983Z" fill="#F6CFB9"/>
<path d="M43.2011 79.6447L36.1047 63.9463L51.7912 56.8487L46.3494 44.8112L30.6629 51.9088L23.5665 36.2105L11.538 41.6533L18.6344 57.3516L2.94789 64.4493L8.38971 76.4868L24.0763 69.3891L31.1727 85.0875L43.2011 79.6447ZM9.24968 74.2045L5.22909 65.3112L20.9156 58.2135L13.8192 42.5151L22.7067 38.4937L29.8031 54.1921L45.4896 47.0944L49.5103 55.9885L33.8238 63.0862L40.9202 78.7845L32.0328 82.806L24.9364 67.1076L9.24981 74.2053L9.24968 74.2045Z" fill="#F6CFB9"/>
</g>
<defs>
<clipPath id="clip0_3670_3455">
<rect width="105.456" height="106.881" fill="white" transform="matrix(-0.98747 0.157807 0.157807 0.98747 61.1345 0)"/>
</clipPath>
</defs>
</svg>
