<svg width="46" height="46" viewBox="0 0 46 46" fill="none" xmlns="http://www.w3.org/2000/svg">
<rect x="3" y="3" width="40" height="40" rx="20" fill="#30374F" fill-opacity="0.11"/>
<rect x="3" y="3" width="40" height="40" rx="20" stroke="#30374F" stroke-opacity="0.16" stroke-width="6"/>
<path d="M17.7998 22.9469V28.6875H18.8H19.8063V26.5476V24.4078H20.8186H21.837L23.1828 26.196C23.9223 27.1781 24.5346 28.0025 24.5406 28.0146C24.5528 28.0449 24.0739 28.6935 22.2735 31.0456L21.928 31.5002H23.104H24.2739L24.9953 30.5364C25.5105 29.8453 25.7227 29.5786 25.7469 29.6028C25.7651 29.621 26.0925 30.0514 26.4744 30.5606L27.1715 31.4881L28.3414 31.4941C28.984 31.4941 29.5053 31.4941 29.5053 31.4881C29.5053 31.482 28.9173 30.7061 28.1899 29.7726C27.4685 28.833 26.8745 28.057 26.8745 28.0389C26.8745 28.0207 27.4564 27.2266 28.1656 26.2688C28.8809 25.311 29.4689 24.5169 29.4811 24.4927C29.4993 24.4684 29.2689 24.4563 28.3899 24.4563H27.2806L26.4986 25.4989C26.0682 26.0687 25.7106 26.5355 25.7045 26.5294C25.6863 26.5294 23.9163 24.2199 23.9163 24.1956C23.9163 24.1835 24.0254 24.1471 24.1648 24.1168C25.2559 23.838 26.0925 23.0742 26.4319 22.0436C26.5774 21.5951 26.6138 21.3526 26.6138 20.7949C26.6138 20.2311 26.5653 19.9341 26.4016 19.4734C25.9894 18.3035 25.0498 17.5457 23.6798 17.2669C23.4859 17.2305 23.11 17.2184 20.6307 17.2123L17.7998 17.2002V22.9469ZM23.3161 19.0854C23.595 19.1885 23.7586 19.2734 23.9405 19.4249C24.3588 19.7704 24.5831 20.3221 24.5467 20.9101C24.4861 21.783 23.9405 22.4074 23.0676 22.5832C22.8857 22.6195 22.6069 22.6256 21.3278 22.6256H19.8063V20.807V18.9885L21.4491 18.9945L23.0918 19.0006L23.3161 19.0854Z" fill="#30374F"/>
</svg>
